<svg xmlns="http://www.w3.org/2000/svg" xmlns:xlink="http://www.w3.org/1999/xlink" viewBox="0 0 1000 1000"><defs><style>.b4861d78-8daa-4f71-9ca8-f9c699963181{fill:none;stroke-miterlimit:10;stroke-width:30px;stroke:url(#fa3163e6-861f-4558-af33-d0563bc1f21f);}.a5598aa7-68ea-4da3-8102-020ccb073875{fill:url(#e4f5ae07-7853-4dd4-a1f4-7b34818892be);}.fce8c071-a998-48f8-8d94-3ad5c102d2ba{fill:url(#afafe383-62eb-4479-8963-54d132233444);}.b3ff3449-f3fb-4596-9f94-2ba34391a96a{fill:url(#f29bd815-c074-48d1-bfef-91d42172cbaa);}.e5f0dbba-5670-4e24-8db0-3fcefcad1d32{fill:url(#bcdf7358-fd44-4970-a58a-4fbed4e3e276);}.e7f60e1f-eaff-41bd-956c-70d22fa9fff9{fill:url(#bf1e4666-5df2-40ed-b00f-2079afb2e7ba);}.e996e9e0-9770-4cf0-aaf8-432b2d575ac1{fill:url(#a65e80dc-ba1e-4f43-9fb9-c9943624cffe);}</style><linearGradient id="fa3163e6-861f-4558-af33-d0563bc1f21f" x1="175.6802" y1="220.6802" x2="824.3198" y2="869.3198" gradientUnits="userSpaceOnUse"><stop offset="0" stop-color="#005aaa"/><stop offset="1" stop-color="#e72b70"/></linearGradient><linearGradient id="e4f5ae07-7853-4dd4-a1f4-7b34818892be" x1="178.7864" y1="103.7149" x2="804.1197" y2="919.7149" xlink:href="#fa3163e6-861f-4558-af33-d0563bc1f21f"/><linearGradient id="afafe383-62eb-4479-8963-54d132233444" x1="130.918" y1="140.3983" x2="756.2513" y2="956.3983" xlink:href="#fa3163e6-861f-4558-af33-d0563bc1f21f"/><linearGradient id="f29bd815-c074-48d1-bfef-91d42172cbaa" x1="296.6044" y1="13.4262" x2="921.9378" y2="829.4262" xlink:href="#fa3163e6-861f-4558-af33-d0563bc1f21f"/><linearGradient id="bcdf7358-fd44-4970-a58a-4fbed4e3e276" x1="106.3662" y1="159.2134" x2="731.6995" y2="975.2134" xlink:href="#fa3163e6-861f-4558-af33-d0563bc1f21f"/><linearGradient id="bf1e4666-5df2-40ed-b00f-2079afb2e7ba" x1="58.4978" y1="195.8969" x2="683.8311" y2="1011.8969" xlink:href="#fa3163e6-861f-4558-af33-d0563bc1f21f"/><linearGradient id="a65e80dc-ba1e-4f43-9fb9-c9943624cffe" x1="224.1842" y1="68.9248" x2="849.5175" y2="884.9248" xlink:href="#fa3163e6-861f-4558-af33-d0563bc1f21f"/></defs><title>lessons</title><g id="abb2a4de-ea93-42d7-89d7-1df51d419b0f" data-name="Lesson 5"><path class="b4861d78-8daa-4f71-9ca8-f9c699963181" d="M695,800v15a15,15,0,0,1-15,15H320a15,15,0,0,1-15-15V800M650,260V200a30,30,0,0,0-30-30H380a30,30,0,0,0-30,30v60m105,0H290a30,30,0,0,0-30,30V770a30,30,0,0,0,30,30H710a30,30,0,0,0,30-30V290a30,30,0,0,0-30-30H545M350,200H230a30,30,0,0,0-30,30V860a30,30,0,0,0,30,30H770a30,30,0,0,0,30-30V230a30,30,0,0,0-30-30H650M440,170a60,60,0,0,1,60-60h0a60,60,0,0,1,60,60m0,75v30a15,15,0,0,1-15,15H455a15,15,0,0,1-15-15V245"/><rect class="a5598aa7-68ea-4da3-8102-020ccb073875" x="320" y="410" width="210" height="30"/><rect class="fce8c071-a998-48f8-8d94-3ad5c102d2ba" x="320" y="470" width="150" height="30"/><rect class="b3ff3449-f3fb-4596-9f94-2ba34391a96a" x="590" y="410" width="90" height="90" rx="30"/><rect class="e5f0dbba-5670-4e24-8db0-3fcefcad1d32" x="320" y="560" width="210" height="30"/><rect class="e7f60e1f-eaff-41bd-956c-70d22fa9fff9" x="320" y="620" width="150" height="30"/><rect class="e996e9e0-9770-4cf0-aaf8-432b2d575ac1" x="590" y="560" width="90" height="90" rx="30"/></g></svg>