<svg xmlns="http://www.w3.org/2000/svg" xmlns:xlink="http://www.w3.org/1999/xlink" viewBox="0 0 1000 1000"><defs><style>.bc1763f8-4618-4820-a841-a273e5dffd35{fill:url(#a183c666-c3f1-4528-8383-dcc1564eb060);}.bfa9c7cd-9d44-4cbd-b3a7-875a016256a0{fill:url(#b20c69b3-f497-4ba6-a0b5-12291d3249e2);}.f481c093-38ae-4a9d-847d-a6ec6cead081{fill:url(#b9a4b978-f63c-4a8c-bfdd-b16fefa70d3f);}.ab4b21f4-20e1-4b2b-8885-03bd7f88cf6c{fill:url(#b296e00c-34da-42e8-a28e-0e26b6df5659);}.e1b59178-20a5-4a95-a4dd-56874fb8302b{fill:url(#a4e654f0-d13f-4a3b-9cb7-178161e12440);}.a68d1355-51dd-4c0c-968f-228ba4491fe6{fill:url(#f80f9cd9-0c55-44f7-ab33-36c232077069);}.b943bca9-2429-4051-aaab-4a1a5747c915{fill:url(#aea3912f-4011-4907-b5f7-426cb50f70f8);}.f35aa114-cdc1-4aaf-9ff2-e5e104f09a48{fill:none;stroke-miterlimit:10;stroke-width:30px;stroke:url(#b52e5b26-29d4-4574-8371-da83b8d97ed3);}</style><linearGradient id="a183c666-c3f1-4528-8383-dcc1564eb060" x1="51.8519" y1="280.7009" x2="719.404" y2="948.253" gradientUnits="userSpaceOnUse"><stop offset="0" stop-color="#005aaa"/><stop offset="1" stop-color="#e72b70"/></linearGradient><linearGradient id="b20c69b3-f497-4ba6-a0b5-12291d3249e2" x1="99.7796" y1="228.6287" x2="760.2141" y2="889.0631" xlink:href="#a183c666-c3f1-4528-8383-dcc1564eb060"/><linearGradient id="b9a4b978-f63c-4a8c-bfdd-b16fefa70d3f" x1="125.7813" y1="194.6303" x2="786.2158" y2="855.0648" xlink:href="#a183c666-c3f1-4528-8383-dcc1564eb060"/><linearGradient id="b296e00c-34da-42e8-a28e-0e26b6df5659" x1="-48.8863" y1="359.9627" x2="670.6888" y2="1079.5378" xlink:href="#a183c666-c3f1-4528-8383-dcc1564eb060"/><linearGradient id="a4e654f0-d13f-4a3b-9cb7-178161e12440" x1="-22.2262" y1="326.6228" x2="697.3489" y2="1046.1979" xlink:href="#a183c666-c3f1-4528-8383-dcc1564eb060"/><linearGradient id="f80f9cd9-0c55-44f7-ab33-36c232077069" x1="4.4339" y1="293.2829" x2="724.009" y2="1012.858" xlink:href="#a183c666-c3f1-4528-8383-dcc1564eb060"/><linearGradient id="aea3912f-4011-4907-b5f7-426cb50f70f8" x1="344.1425" y1="25.031" x2="902.8092" y2="855.6976" gradientUnits="userSpaceOnUse"><stop offset="0" stop-color="#005aaa"/><stop offset="0.5" stop-color="#7a418b"/><stop offset="0.5999" stop-color="#9e3a82"/><stop offset="0.7085" stop-color="#be337a"/><stop offset="0.8137" stop-color="#d52f75"/><stop offset="0.913" stop-color="#e22c71"/><stop offset="1" stop-color="#e72b70"/></linearGradient><linearGradient id="b52e5b26-29d4-4574-8371-da83b8d97ed3" x1="291.4094" y1="85.0594" x2="724.7026" y2="835.5453" xlink:href="#a183c666-c3f1-4528-8383-dcc1564eb060"/></defs><title>lessons</title><g id="e04aabb7-43e0-44f9-9984-28c7d8c54f1a" data-name="Lesson 2"><rect class="bc1763f8-4618-4820-a841-a273e5dffd35" x="210" y="483.849" width="120" height="30"/><rect class="bfa9c7cd-9d44-4cbd-b3a7-875a016256a0" x="210" y="423.849" width="200" height="30"/><rect class="f481c093-38ae-4a9d-847d-a6ec6cead081" x="210" y="363.849" width="200" height="30"/><rect class="ab4b21f4-20e1-4b2b-8885-03bd7f88cf6c" x="210" y="603.849" width="30" height="60"/><rect class="e1b59178-20a5-4a95-a4dd-56874fb8302b" x="270" y="603.849" width="30" height="60"/><rect class="a68d1355-51dd-4c0c-968f-228ba4491fe6" x="330" y="603.849" width="30" height="60"/><path class="b943bca9-2429-4051-aaab-4a1a5747c915" d="M180,171.349H820a30,30,0,0,1,30,30v120a0,0,0,0,1,0,0H150a0,0,0,0,1,0,0v-120A30,30,0,0,1,180,171.349Z"/><path class="f35aa114-cdc1-4aaf-9ff2-e5e104f09a48" d="M678,813.4537H582c-6.6274,0-12-6.6866-12-14.9349v-309.35a17.7287,17.7287,0,0,1,1.824-7.9155l48-95.5833c4.7-9.3592,15.652-9.3592,20.352,0l48,95.5833A17.7287,17.7287,0,0,1,690,489.1692v309.35C690,806.7671,684.6274,813.4537,678,813.4537Zm-78-.3053v30.335c0,8.3769,2.6863,15.1676,6,15.1676h48c3.3137,0,6-6.7907,6-15.1676v-30.335ZM570,486.5407l15.4331,7.8028c28.6093,14.4644,60.5245,14.4644,89.1338,0L690,486.5407M630,619.514v60.67M525,721.349H210v30a30,30,0,0,0,30,30H525m210,0h25a30,30,0,0,0,30-30v-30H735m-210,0H180a30,30,0,0,1-30-30v-490a30,30,0,0,1,30-30H820a30,30,0,0,1,30,30v490a30,30,0,0,1-30,30H735"/></g></svg>