<svg id="b2af4b94-c14c-4b84-9f66-65c11dacc55b" data-name="Lesson 1" xmlns="http://www.w3.org/2000/svg" xmlns:xlink="http://www.w3.org/1999/xlink" viewBox="0 0 1000 1000"><defs><style>.b0833e49-4421-4aab-93bd-177c42a49a76{fill:url(#a60c041c-c6fa-4461-b2e9-9503691625fa);}.b3fd0081-ff1f-42ae-9eb1-970a06042482{fill:url(#ba2bc0cd-67a1-43c8-b703-35fb9a2501a8);}.f21dff73-823f-41dd-80c0-3e813aea74da{fill:url(#b42b24e3-60a0-4629-b04d-5dd46f550a0c);}.ac47152b-0a40-467b-bec7-6209f30a5586{fill:url(#fc8402a9-e572-4b38-80d9-587a9843b7c5);}.f12f7e86-6fe9-4f89-976a-b41e77a83ed4{fill:url(#e30dcb58-fc87-4206-b483-26dfecd9150a);}.be1ef459-2e4e-4ac2-bc66-4e8bc331a171{fill:url(#f01a6f58-4ff5-4856-b8fa-9fcbb43ca0fa);}.a016ce18-0a4d-406d-9c50-0193b93b9d8f{fill:none;stroke-miterlimit:10;stroke-width:30px;stroke:url(#a3c446df-95d5-4740-8e8c-9141673e26be);}.ab0f7eb5-53d3-4174-a6a5-fd5fe87e27da{fill:url(#bde1e629-6f8a-46ad-8cab-2edde6875b07);}</style><linearGradient id="a60c041c-c6fa-4461-b2e9-9503691625fa" x1="214.368" y1="149.4951" x2="818.368" y2="920.4951" gradientUnits="userSpaceOnUse"><stop offset="0" stop-color="#005aaa"/><stop offset="1" stop-color="#e72b70"/></linearGradient><linearGradient id="ba2bc0cd-67a1-43c8-b703-35fb9a2501a8" x1="289.9725" y1="90.2667" x2="893.9725" y2="861.2667" xlink:href="#a60c041c-c6fa-4461-b2e9-9503691625fa"/><linearGradient id="b42b24e3-60a0-4629-b04d-5dd46f550a0c" x1="319.1003" y1="67.4481" x2="923.1003" y2="838.4481" xlink:href="#a60c041c-c6fa-4461-b2e9-9503691625fa"/><linearGradient id="fc8402a9-e572-4b38-80d9-587a9843b7c5" x1="348.2281" y1="44.6294" x2="952.2281" y2="815.6294" xlink:href="#a60c041c-c6fa-4461-b2e9-9503691625fa"/><linearGradient id="e30dcb58-fc87-4206-b483-26dfecd9150a" x1="217.4764" y1="157.6096" x2="826.4764" y2="900.6096" xlink:href="#a60c041c-c6fa-4461-b2e9-9503691625fa"/><linearGradient id="f01a6f58-4ff5-4856-b8fa-9fcbb43ca0fa" x1="220.1055" y1="155.4546" x2="829.1055" y2="898.4546" xlink:href="#a60c041c-c6fa-4461-b2e9-9503691625fa"/><linearGradient id="a3c446df-95d5-4740-8e8c-9141673e26be" x1="221.967" y1="244.467" x2="778.033" y2="800.5331" xlink:href="#a60c041c-c6fa-4461-b2e9-9503691625fa"/><linearGradient id="bde1e629-6f8a-46ad-8cab-2edde6875b07" x1="334.5879" y1="88.8323" x2="881.8193" y2="809.2381" xlink:href="#a60c041c-c6fa-4461-b2e9-9503691625fa"/></defs><title>lessons</title><rect class="b0833e49-4421-4aab-93bd-177c42a49a76" x="395" y="537.3962" width="270" height="30"/><rect class="b3fd0081-ff1f-42ae-9eb1-970a06042482" x="545" y="477.3962" width="120" height="30"/><rect class="f21dff73-823f-41dd-80c0-3e813aea74da" x="545" y="417.3962" width="120" height="30"/><rect class="ac47152b-0a40-467b-bec7-6209f30a5586" x="545" y="357.3962" width="120" height="30"/><rect class="f12f7e86-6fe9-4f89-976a-b41e77a83ed4" x="395" y="432.3962" width="120" height="30"/><path class="be1ef459-2e4e-4ac2-bc66-4e8bc331a171" d="M485,357.3962H425a30,30,0,0,0-30,30h0v120h30v-105a15,15,0,0,1,15-15h30a15,15,0,0,1,15,15v105h30v-120h0a30,30,0,0,0-30-30Z"/><path class="a016ce18-0a4d-406d-9c50-0193b93b9d8f" d="M720,812.5H340a60,60,0,0,1-60-60v-520a60,60,0,0,1,60-60H720a60,60,0,0,1,60,60v520A60,60,0,0,1,720,812.5Zm-440-60v-520a60,60,0,0,0-60,60v520a60,60,0,0,0,60,60H660a60,60,0,0,0,60-60H340A60,60,0,0,1,280,752.5Zm60,0H720a60,60,0,0,0,60-60v-60a60,60,0,0,1-60,60H340a60,60,0,0,0-60,60v-.2077a60,60,0,0,0-60,60"/><path class="ab0f7eb5-53d3-4174-a6a5-fd5fe87e27da" d="M481.5384,127.5H358.4616C348.2656,127.5,340,136.0706,340,146.6427V249.1412c0,22.84,18.0562,38.3589,37.1218,38.3589a35.54,35.54,0,0,0,23.6514-9.1326L420,261.4986l19.2268,16.8689A35.5337,35.5337,0,0,0,462.8783,287.5C481.942,287.5,500,271.98,500,249.1412V146.6427c0-10.5721-8.2656-19.1427-18.4616-19.1427Z"/></svg>