<svg xmlns="http://www.w3.org/2000/svg" xmlns:xlink="http://www.w3.org/1999/xlink" viewBox="0 0 1000 1000"><defs><style>.bc27650c-e571-42ef-9457-c4847c88f276{fill:url(#b0fb1511-ac6e-4f99-8a1c-668684a644a8);}.b8d5efee-49b1-4d34-b6ad-f6a8ca79f359{fill:url(#b171d70c-db0b-4d6e-bc89-6c1d71ec72a0);}.a0894a07-980d-430a-90d2-aae117cb7241{fill:url(#bab3e78d-65b1-4913-abb6-6d760ff463e9);}.a86383d9-2497-4aec-8bbf-29f20523159c{fill:url(#e03bbeb4-122a-4bfc-9407-64fa9a906533);}.b2493f84-a069-410c-a07c-75399b8e9cf6{fill:url(#a9c57663-a244-408c-a322-d1effad7ca54);}.ad9f4fd0-757f-4d7a-92e0-ec3c3859019f{fill:url(#b7d5868a-fb5f-4fd4-b5eb-df4d9fdf4522);}.ff3b087c-34ed-4168-a49d-8b8be9390620{fill:url(#b8aeae7c-5ace-4e05-b52b-a38ce64eb36c);}.f0913eae-7e00-41f9-a06b-accdcf1bb897{fill:url(#ae806d19-4e16-4b32-9fc7-538a1ba69931);}.f74cc109-05a7-4ef9-87f8-5f2caa8001ea{fill:url(#a92547d2-c829-46c2-9560-2f07db43b4d5);}.a6aa7ea1-af25-41fb-a2ee-5fc99c8c6263{fill:none;stroke-miterlimit:10;stroke-width:30px;stroke:url(#b8083e25-442e-4cb8-8a3f-de61ffc623fb);}</style><linearGradient id="b0fb1511-ac6e-4f99-8a1c-668684a644a8" x1="179.0337" y1="202.8339" x2="919.56" y2="772.9655" gradientUnits="userSpaceOnUse"><stop offset="0" stop-color="#005aaa"/><stop offset="1" stop-color="#e72b70"/></linearGradient><linearGradient id="b171d70c-db0b-4d6e-bc89-6c1d71ec72a0" x1="152.3206" y1="237.5307" x2="892.847" y2="807.6623" xlink:href="#b0fb1511-ac6e-4f99-8a1c-668684a644a8"/><linearGradient id="bab3e78d-65b1-4913-abb6-6d760ff463e9" x1="125.6076" y1="272.2274" x2="866.1339" y2="842.359" xlink:href="#b0fb1511-ac6e-4f99-8a1c-668684a644a8"/><linearGradient id="e03bbeb4-122a-4bfc-9407-64fa9a906533" x1="86.994" y1="325.3935" x2="823.7142" y2="892.5948" xlink:href="#b0fb1511-ac6e-4f99-8a1c-668684a644a8"/><linearGradient id="a9c57663-a244-408c-a322-d1effad7ca54" x1="307.2849" y1="-18.21" x2="1048.7323" y2="551.0005" xlink:href="#b0fb1511-ac6e-4f99-8a1c-668684a644a8"/><linearGradient id="b7d5868a-fb5f-4fd4-b5eb-df4d9fdf4522" x1="280.5915" y1="16.5605" x2="1022.0389" y2="585.7711" xlink:href="#b0fb1511-ac6e-4f99-8a1c-668684a644a8"/><linearGradient id="b8aeae7c-5ace-4e05-b52b-a38ce64eb36c" x1="253.8981" y1="51.3311" x2="995.3454" y2="620.5416" xlink:href="#b0fb1511-ac6e-4f99-8a1c-668684a644a8"/><linearGradient id="ae806d19-4e16-4b32-9fc7-538a1ba69931" x1="352.3432" y1="-78.1457" x2="1093.7905" y2="494.7491" xlink:href="#b0fb1511-ac6e-4f99-8a1c-668684a644a8"/><linearGradient id="a92547d2-c829-46c2-9560-2f07db43b4d5" x1="312.237" y1="-26.2398" x2="1053.6844" y2="546.655" xlink:href="#b0fb1511-ac6e-4f99-8a1c-668684a644a8"/><linearGradient id="b8083e25-442e-4cb8-8a3f-de61ffc623fb" x1="265.2167" y1="221.8614" x2="822.8753" y2="779.52" xlink:href="#b0fb1511-ac6e-4f99-8a1c-668684a644a8"/></defs><title>lessons</title><g id="e42922ee-4068-4897-865b-986a40b7a966" data-name="Lesson 3"><rect class="bc27650c-e571-42ef-9457-c4847c88f276" x="276.7105" y="335.1314" width="184.2105" height="27.6316"/><rect class="b8d5efee-49b1-4d34-b6ad-f6a8ca79f359" x="276.7105" y="390.3946" width="184.2105" height="27.6316"/><rect class="a0894a07-980d-430a-90d2-aae117cb7241" x="276.7105" y="445.6578" width="184.2105" height="27.6316"/><rect class="a86383d9-2497-4aec-8bbf-29f20523159c" x="276.7105" y="500.9209" width="184.2105" height="82.8947" rx="15"/><rect class="b2493f84-a069-410c-a07c-75399b8e9cf6" x="617.5" y="248.5525" width="110.5263" height="27.6316"/><rect class="ad9f4fd0-757f-4d7a-92e0-ec3c3859019f" x="617.5" y="303.8157" width="110.5263" height="27.6316"/><rect class="ff3b087c-34ed-4168-a49d-8b8be9390620" x="617.5" y="359.0788" width="110.5263" height="27.6316"/><rect class="f0913eae-7e00-41f9-a06b-accdcf1bb897" x="783.2895" y="248.5525" width="55.2632" height="55.2632" rx="27.6316"/><rect class="f74cc109-05a7-4ef9-87f8-5f2caa8001ea" x="797.1053" y="331.4472" width="27.6316" height="55.2632"/><path class="a6aa7ea1-af25-41fb-a2ee-5fc99c8c6263" d="M474.7368,772.6314H207.6316A27.6315,27.6315,0,0,1,180,745V339.7367a27.6316,27.6316,0,0,1,27.6316-27.6316h27.3248M530,772.6314H797.1053A27.6314,27.6314,0,0,0,824.7368,745V434.5625M576.0526,256.842h-18.421a55.2631,55.2631,0,0,0-55.2632,55.2631V717.3683H741.8421a27.6316,27.6316,0,0,0,27.6316-27.6316V434.5625M442.3684,256.842H265.2632a30,30,0,0,0-30,30V687.3683a30,30,0,0,0,30,30H502.3684V316.842A60,60,0,0,0,442.3684,256.842ZM769.4737,662.1051H557.6316a55.2632,55.2632,0,0,0-55.2632,55.2632m0,0a55.2631,55.2631,0,0,0-55.2631-55.2632H235.2632M880,406.9309V228.29a27.6316,27.6316,0,0,0-27.6316-27.6316H603.6842A27.6316,27.6316,0,0,0,576.0526,228.29V519.3553c0,13.1808,16.7,18.8757,24.753,8.4412l67.8095-87.86a13.8157,13.8157,0,0,1,10.9372-5.3745H852.3684A27.6316,27.6316,0,0,0,880,406.9309ZM460.9211,772.1635c0,15.01,9.2783,27.1786,20.7236,27.1786h41.4474c11.4454,0,20.7237-12.1683,20.7237-27.1786"/></g></svg>