<svg xmlns="http://www.w3.org/2000/svg" xmlns:xlink="http://www.w3.org/1999/xlink" viewBox="0 0 1000 1000"><defs><style>.f1d4527f-c84b-4428-b8b0-d86423afe226{fill:none;stroke-miterlimit:10;stroke-width:30px;stroke:url(#bfe5637d-7ffb-4bb0-b60b-64c535d0f35c);}.a365586a-2215-4047-b167-0e4312f56b20{fill:url(#ba8ae8aa-b199-4858-92fe-083c0be599d5);}.f66fb8a7-6e35-4bf2-ad04-d85080bd8057{fill:url(#fdd8e070-eca8-49bf-b776-d6afe97fe570);}.b9edc724-e54e-495e-b394-e2c161c58002{fill:url(#f9063848-e55b-4383-90e9-dad4dfa5beb6);}.b2abeaf5-a268-4a38-a10f-d1e2c6bb6c15{fill:url(#b1faa7b1-3a91-4cac-a4c7-6414d3617f4a);}.b4b35649-1476-4719-ac73-9e75cc778973{fill:url(#e3d69c54-98b5-4465-a12c-a6746cd342c6);}.bf5f5ac0-fce0-4571-83ef-482494656a2c{fill:url(#e2679419-1e9e-4221-8cfc-dc32df5cc3c2);}</style><linearGradient id="bfe5637d-7ffb-4bb0-b60b-64c535d0f35c" x1="255.5291" y1="403.8245" x2="725.0334" y2="403.8244" gradientTransform="translate(509.723 -203.0795) rotate(45)" gradientUnits="userSpaceOnUse"><stop offset="0" stop-color="#005aaa"/><stop offset="1" stop-color="#e72b70"/></linearGradient><linearGradient id="ba8ae8aa-b199-4858-92fe-083c0be599d5" x1="-77.5349" y1="402.8139" x2="564.4651" y2="1082.8139" gradientTransform="translate(-447.5821 375.5398) rotate(-45)" xlink:href="#bfe5637d-7ffb-4bb0-b60b-64c535d0f35c"/><linearGradient id="fdd8e070-eca8-49bf-b776-d6afe97fe570" x1="-28.3865" y1="356.412" x2="613.6135" y2="1036.412" gradientTransform="matrix(1, 0, 0, 1, 0, 0)" xlink:href="#bfe5637d-7ffb-4bb0-b60b-64c535d0f35c"/><linearGradient id="f9063848-e55b-4383-90e9-dad4dfa5beb6" x1="-61.7448" y1="387.9061" x2="580.2552" y2="1067.9061" gradientTransform="translate(-451.0136 423.824) rotate(-45)" xlink:href="#bfe5637d-7ffb-4bb0-b60b-64c535d0f35c"/><linearGradient id="b1faa7b1-3a91-4cac-a4c7-6414d3617f4a" x1="-19.5666" y1="348.085" x2="622.4334" y2="1028.085" gradientTransform="matrix(1, 0, 0, 1, 0, 0)" xlink:href="#bfe5637d-7ffb-4bb0-b60b-64c535d0f35c"/><linearGradient id="e3d69c54-98b5-4465-a12c-a6746cd342c6" x1="-50.7111" y1="377.489" x2="591.2889" y2="1057.489" gradientTransform="matrix(1, 0, 0, 1, 0, 0)" xlink:href="#bfe5637d-7ffb-4bb0-b60b-64c535d0f35c"/><linearGradient id="e2679419-1e9e-4221-8cfc-dc32df5cc3c2" x1="-91.4448" y1="415.9464" x2="550.5552" y2="1095.9464" gradientTransform="translate(-470.5111 390.8951) rotate(-45)" xlink:href="#bfe5637d-7ffb-4bb0-b60b-64c535d0f35c"/></defs><title>lessons</title><g id="bfcdc526-bd68-40cd-951a-3515ad5787cb" data-name="Lesson 6"><path class="f1d4527f-c84b-4428-b8b0-d86423afe226" d="M405.088,550.0583l-28.4844-28.4844C568.9368,148.2216,816.4241,183.577,816.4241,183.577S851.7794,431.0644,477.72,622.69L449.631,594.6014m46.4736,18.1893s70.8491,98.3634-28.973,202.824a1.0015,1.0015,0,0,0,1.1829,1.5835C606.0956,745.622,674.1533,606.9917,609.2417,542.08M457.9209,390.7592C393.01,325.8478,254.38,393.9046,182.8036,531.6845a1.0015,1.0015,0,0,0,1.5836,1.1828c104.4412-99.8389,202.1159-29.6782,202.1159-29.6782m-62.7754,174.387c20.3451-8.8982,170.9767-78.7115,209.8536-211.1565-133.1077,38.219-202.3521,189.4271-211.1665,209.846A.9961.9961,0,0,0,323.7277,677.5761Zm340.03-462.8175,121.39,121.39m-122.52.5166a48,48,0,1,0,0,67.8822A48,48,0,0,0,662.6283,336.6656Z"/><rect class="a365586a-2215-4047-b167-0e4312f56b20" x="222.0253" y="720.549" width="15" height="15" transform="translate(582.035 50.9418) rotate(45)"/><path class="f66fb8a7-6e35-4bf2-ad04-d85080bd8057" d="M293.6421,667.291c.3527-.87,4.4477-10.8783,12.372-26.3373l-67.65,67.65L248.9707,719.21l39.7391-39.739Z"/><rect class="b9edc724-e54e-495e-b394-e2c161c58002" x="278.5938" y="748.8333" width="15" height="15" transform="translate(618.6036 19.2261) rotate(45)"/><path class="b2abeaf5-a268-4a38-a10f-d1e2c6bb6c15" d="M332.8485,706.3014l-12.4392,5.11-25.4766,25.4767,10.6066,10.6066,53.7828-53.7828C343.7831,701.7681,333.719,705.9439,332.8485,706.3014Z"/><path class="b4b35649-1476-4719-ac73-9e75cc778973" d="M301.4748,698.6461l-.0656-.0656a31.322,31.322,0,0,1-4.6487-5.9469l-51.6788,51.6789,10.6065,10.6066,51.68-51.6794A31.3333,31.3333,0,0,1,301.4748,698.6461Z"/><rect class="bf5f5ac0-fce0-4571-83ef-482494656a2c" x="229.0964" y="755.9044" width="15" height="15" transform="translate(609.1061 56.2972) rotate(45)"/></g></svg>