<svg xmlns="http://www.w3.org/2000/svg" xmlns:xlink="http://www.w3.org/1999/xlink" viewBox="0 0 1000 1000"><defs><style>.af109093-6312-47c6-a818-52a9d7a5cf48{fill:none;stroke-miterlimit:10;stroke-width:30px;stroke:url(#b6f07964-5e12-44cf-99ff-1c40d63f5e7f);}.f804b8da-fa2e-475c-ad95-af6f918d53b2{fill:url(#ece443d9-051e-4209-8565-425a3e073443);}.b1df7741-5a90-4145-9c31-b1da1cbf27a1{fill:url(#eca610f2-4a3b-40a7-8897-5799a6b40a95);}.fca12c6b-8779-451b-a847-7ada9e2c576d{fill:url(#aa48761f-0085-44ba-846c-b697e6f87938);}.a49d0ee4-5c50-498e-8f13-ae988f13653e{fill:url(#ea6d7b54-02f1-4b6f-9eeb-e1f9b6c02015);}.fa9a8f5f-bec4-4331-a602-1c56d6dc9f34{fill:url(#f5e28bca-ebf6-4772-a162-84ab144d2742);}.ae5f5929-25bb-42f9-99d2-a21d8de144a8{fill:url(#ef8dd141-14ba-4e51-9928-264a8aad0bb9);}.a438349d-fa7c-45a7-a287-cf944ca26a89{fill:url(#acb4edc1-ce7b-46ec-acc5-8f354bbe4e1c);}.b9873e43-65f7-492a-ad1f-04cacc02f471{fill:url(#e3955556-0661-4dae-bd1f-f3b4a2670237);}.ae2cbee4-e199-425d-92e2-2a8243b0d43d{fill:url(#bbe98daf-4004-4288-b79d-75f13468365c);}.bfefd2a8-9f06-4c85-8942-2e9289918f34{fill:url(#bd366048-81ee-4882-add1-33b72a7092ce);}.aebd58c7-8b44-45db-84fd-d34eb8a3efa6{fill:url(#e9f694df-1822-479e-b93c-774b8fa93093);}</style><linearGradient id="b6f07964-5e12-44cf-99ff-1c40d63f5e7f" x1="175.6802" y1="221.1802" x2="824.3198" y2="869.8198" gradientUnits="userSpaceOnUse"><stop offset="0" stop-color="#005aaa"/><stop offset="1" stop-color="#e72b70"/></linearGradient><linearGradient id="ece443d9-051e-4209-8565-425a3e073443" x1="335.0626" y1="-18.349" x2="964.396" y2="796.3177" xlink:href="#b6f07964-5e12-44cf-99ff-1c40d63f5e7f"/><linearGradient id="eca610f2-4a3b-40a7-8897-5799a6b40a95" x1="306.035" y1="4.075" x2="935.3683" y2="818.7416" xlink:href="#b6f07964-5e12-44cf-99ff-1c40d63f5e7f"/><linearGradient id="aa48761f-0085-44ba-846c-b697e6f87938" x1="277.0074" y1="26.4989" x2="906.3407" y2="841.1656" xlink:href="#b6f07964-5e12-44cf-99ff-1c40d63f5e7f"/><linearGradient id="ea6d7b54-02f1-4b6f-9eeb-e1f9b6c02015" x1="172.8277" y1="106.9782" x2="802.161" y2="921.6449" xlink:href="#b6f07964-5e12-44cf-99ff-1c40d63f5e7f"/><linearGradient id="f5e28bca-ebf6-4772-a162-84ab144d2742" x1="143.8" y1="129.4022" x2="773.1334" y2="944.0688" xlink:href="#b6f07964-5e12-44cf-99ff-1c40d63f5e7f"/><linearGradient id="ef8dd141-14ba-4e51-9928-264a8aad0bb9" x1="155.7309" y1="120.1855" x2="785.0642" y2="934.8522" xlink:href="#b6f07964-5e12-44cf-99ff-1c40d63f5e7f"/><linearGradient id="acb4edc1-ce7b-46ec-acc5-8f354bbe4e1c" x1="-27.5871" y1="261.7994" x2="601.7463" y2="1076.4661" xlink:href="#b6f07964-5e12-44cf-99ff-1c40d63f5e7f"/><linearGradient id="e3955556-0661-4dae-bd1f-f3b4a2670237" x1="1.4406" y1="239.3754" x2="630.7739" y2="1054.0421" xlink:href="#b6f07964-5e12-44cf-99ff-1c40d63f5e7f"/><linearGradient id="bbe98daf-4004-4288-b79d-75f13468365c" x1="139.368" y1="132.8259" x2="768.7013" y2="947.4926" xlink:href="#b6f07964-5e12-44cf-99ff-1c40d63f5e7f"/><linearGradient id="bd366048-81ee-4882-add1-33b72a7092ce" x1="176.944" y1="103.7983" x2="806.2774" y2="918.465" xlink:href="#b6f07964-5e12-44cf-99ff-1c40d63f5e7f"/><linearGradient id="e9f694df-1822-479e-b93c-774b8fa93093" x1="101.792" y1="161.8536" x2="731.1253" y2="976.5202" xlink:href="#b6f07964-5e12-44cf-99ff-1c40d63f5e7f"/></defs><title>lessons</title><g id="e4af4928-9bbb-46de-999c-961aa433f3fa" data-name="Lesson 4"><path class="af109093-6312-47c6-a818-52a9d7a5cf48" d="M560,200.5H770a30,30,0,0,1,30,30v630a30,30,0,0,1-30,30H230a30,30,0,0,1-30-30v-630a30,30,0,0,1,30-30H440m.1248,60H289.9376A29.9425,29.9425,0,0,0,260,290.4475v510.105A29.9425,29.9425,0,0,0,289.9376,830.5H710.0624A29.9425,29.9425,0,0,0,740,800.5525V290.4475A29.9425,29.9425,0,0,0,710.0624,260.5H559.8752M440,169.5v105a15,15,0,0,0,15,15h90a15,15,0,0,0,15-15v-105a60,60,0,0,0-60-60h0a60,60,0,0,0-60,60m270,16a15,15,0,0,0-15-15H560m-120,0H305a15,15,0,0,0-15,15"/><rect class="f804b8da-fa2e-475c-ad95-af6f918d53b2" x="545" y="335.5" width="150" height="30"/><rect class="b1df7741-5a90-4145-9c31-b1da1cbf27a1" x="545" y="395.5" width="150" height="30"/><rect class="fca12c6b-8779-451b-a847-7ada9e2c576d" x="545" y="455.5" width="150" height="30"/><rect class="a49d0ee4-5c50-498e-8f13-ae988f13653e" x="305" y="515.5" width="390" height="30"/><rect class="fa9a8f5f-bec4-4331-a602-1c56d6dc9f34" x="305" y="575.5" width="390" height="30"/><rect class="ae5f5929-25bb-42f9-99d2-a21d8de144a8" x="305" y="395.5" width="150" height="30"/><rect class="ae5f5929-25bb-42f9-99d2-a21d8de144a8" x="365" y="335.5" width="30" height="150"/><rect class="a438349d-fa7c-45a7-a287-cf944ca26a89" x="305" y="755" width="120" height="30"/><rect class="b9873e43-65f7-492a-ad1f-04cacc02f471" x="305" y="695" width="120" height="30"/><rect class="ae2cbee4-e199-425d-92e2-2a8243b0d43d" x="605" y="725" width="30" height="60"/><rect class="bfefd2a8-9f06-4c85-8942-2e9289918f34" x="665" y="725" width="30" height="60"/><rect class="aebd58c7-8b44-45db-84fd-d34eb8a3efa6" x="545" y="725" width="30" height="60"/></g></svg>