<svg xmlns="http://www.w3.org/2000/svg" viewBox="0 0 800 800"><defs><style>.a{fill:#fff;}</style></defs><title>logoTransparent</title><path class="a" d="M694.6637,321.5735c-49.3139-12.8334-117.2643-22.15-190.81-26.6985,1.2,19.5342,2.0469,39.6009,2.5636,60.0037,134.4006,8.76,206.827,31.4287,228.6808,45.2062-29.6045,19.1193-143.7184,48.48-335.0976,48.48-191.7146,0-305.8939-29.4652-335.2544-48.58,27.8794-18.296,132.3183-46.0928,313.0118-48.406a29.8868,29.8868,0,0,0-.3746-59.7711c-.1307,0-.2614,0-.392.0043C288.552,292.94,0,304.0834,0,400.0022,0,503.1174,333.2026,508.3405,400,508.3405s400-5.2231,400-108.3383C800,354.28,739.8806,333.3439,694.6637,321.5735Z"/><path class="a" d="M445.1249,506.3613c-8.7537,134.4411-31.4264,206.882-45.2077,228.7359-19.1192-29.6046-48.48-143.7192-48.48-335.095,0-191.5719,29.4215-305.7257,48.5364-335.1909,18.3481,28.594,46.955,137.5726,48.5232,320.149A29.89,29.89,0,0,0,478.38,414.591h.2613a29.8928,29.8928,0,0,0,29.6306-30.1448c-.8407-97.6264-9.61-189.1019-24.6907-257.5724C464.5191,40.3165,437.96,0,400,0,296.8853,0,291.6623,333.2045,291.6623,400.0022,291.6623,466.7955,296.8853,800,400,800c45.7092,0,66.6449-60.0805,78.4109-105.2759,12.8485-49.3387,22.1712-117.3516,26.7168-190.9618C482.9778,505.09,462.5005,505.8941,445.1249,506.3613Z"/></svg>