<svg xmlns="http://www.w3.org/2000/svg" xmlns:xlink="http://www.w3.org/1999/xlink" viewBox="0 0 1275.4953 399.9978"><defs><style>.b0677cda-eafd-474e-a0c9-971228b6fea7{fill:url(#f7931e56-47ae-42d9-89c7-a85521a5b5ca);}.f246e5dd-c037-4823-b1cd-10421a89c31a{fill:url(#efbdd1cf-ed2d-4a2b-b0d6-41c9bbbc4519);}.f0584333-47ea-4343-bd81-747a022b4d48{fill:#005aaa;}</style><linearGradient id="f7931e56-47ae-42d9-89c7-a85521a5b5ca" y1="200.037" x2="400.0022" y2="200.037" gradientUnits="userSpaceOnUse"><stop offset="0" stop-color="#00c0f4"/><stop offset="1" stop-color="#005aaa"/></linearGradient><linearGradient id="efbdd1cf-ed2d-4a2b-b0d6-41c9bbbc4519" x1="199.985" y1="400.037" x2="199.985" y2="0.037" gradientUnits="userSpaceOnUse"><stop offset="0.25" stop-color="#005aaa"/><stop offset="0.3311" stop-color="#2154a4"/><stop offset="0.5" stop-color="#6f4597"/><stop offset="0.5585" stop-color="#8f3d8f"/><stop offset="0.6152" stop-color="#a73788"/><stop offset="0.65" stop-color="#b03586"/><stop offset="0.75" stop-color="#bf2670"/><stop offset="1" stop-color="#e4003a"/></linearGradient></defs><title>logo</title><g id="f4a0f04d-d408-48ec-aae0-ba2b587c9adc" data-name="logo"><path class="b0677cda-eafd-474e-a0c9-971228b6fea7" d="M347.3337,160.7867c-24.657-6.4166-57.9658-11.0748-94.739-13.3492.6,9.7671,1.0234,19.8005,1.2818,30.0018,67.2006,4.38,102.7473,15.7144,113.6743,22.6032-14.8023,9.56-71.86,24.24-167.55,24.24-95.8578,0-152.9478-14.7327-167.6281-24.29,13.94-9.148,66.16-23.0464,156.5068-24.203a14.9434,14.9434,0,0,0-.1874-29.8856c-.0653,0-.1306,0-.196.0022C144.2768,146.47,0,152.0417,0,200.0011,0,251.5587,166.6022,254.17,200.0011,254.17s200.0011-2.6115,200.0011-54.1691C400.0022,177.14,369.9423,166.6719,347.3337,160.7867Z"/><path class="f246e5dd-c037-4823-b1cd-10421a89c31a" d="M222.5637,253.8844c-4.3769,67.22-15.7133,102.7743-22.604,113.7012-9.56-14.8023-24.24-71.86-24.24-167.5475,0-95.7859,14.7109-152.8628,24.2683-167.5954,9.1741,14.297,23.4777,68.7863,24.2618,160.0745a14.945,14.945,0,0,0,14.9417,14.8153h.1307A14.9464,14.9464,0,0,0,254.1376,192.26c-.42-48.8133-4.8049-94.551-12.3455-128.7863C232.2608,20.1953,218.981.037,200.0011.037c-51.5576,0-54.1692,166.6023-54.1692,200.0011,0,33.3967,2.6116,199.9989,54.1692,199.9989,22.8547,0,33.3226-30.04,39.2056-52.6379,6.4243-24.6694,11.0857-58.0091,13.3585-94.8142C241.49,253.2486,231.2515,253.6508,222.5637,253.8844Z"/><path class="f0584333-47ea-4343-bd81-747a022b4d48" d="M575.6081,169.586A22.5262,22.5262,0,0,1,598.1645,147.03H665.157V100.0372H599.5179a70.7875,70.7875,0,0,0-70.9023,70.9022V300.037h46.9925Z"/><path class="f0584333-47ea-4343-bd81-747a022b4d48" d="M754.1344,247.7062a14.9092,14.9092,0,0,1-13.1579,7.97H707.7434V300.037h38.425a54.8125,54.8125,0,0,0,41.3272-18.5013,61.6242,61.6242,0,0,0,8.1426-11.8746L885.2623,100.037H831.954l-46.9173,89.5489-51.88-89.5489H678.8713L759.172,238.6836Z"/><path class="f0584333-47ea-4343-bd81-747a022b4d48" d="M917.9991,141.09,834.7942,300.037h53.0076L906.42,264.4731h97.2932V300.037h46.9925V135.5258a35.346,35.346,0,0,0-35.1879-35.4888H983.8637A73.4149,73.4149,0,0,0,917.9991,141.09Zm65.7894,6.0151h13.985a5.8722,5.8722,0,0,1,5.8646,5.8647v64.5112H931.0818l28.9474-55.3383A26.4613,26.4613,0,0,1,983.7885,147.1047Z"/><path class="f0584333-47ea-4343-bd81-747a022b4d48" d="M1240.3073,100.037H1133.6908a35.4579,35.4579,0,0,0-35.4887,35.4888V300.037h46.9925V152.8942a5.8722,5.8722,0,0,1,5.8646-5.8647h71.579a5.8723,5.8723,0,0,1,5.8647,5.8647V300.037h46.9924V135.5258A35.3461,35.3461,0,0,0,1240.3073,100.037Z"/></g></svg>